<svg width="29" height="29" viewBox="0 0 29 29" fill="none" xmlns="http://www.w3.org/2000/svg">
<path fill-rule="evenodd" clip-rule="evenodd" d="M27.1875 14.5C27.1875 14.2596 27.0921 14.0291 26.9221 13.8592C26.7521 13.6892 26.5216 13.5937 26.2813 13.5937H4.90647L10.6104 7.89161C10.6947 7.80735 10.7615 7.70732 10.8071 7.59723C10.8527 7.48714 10.8762 7.36915 10.8762 7.24999C10.8762 7.13082 10.8527 7.01283 10.8071 6.90274C10.7615 6.79265 10.6947 6.69262 10.6104 6.60836C10.5261 6.5241 10.4261 6.45726 10.316 6.41166C10.2059 6.36606 10.0879 6.34259 9.96878 6.34259C9.84962 6.34259 9.73163 6.36606 9.62154 6.41166C9.51145 6.45726 9.41142 6.5241 9.32716 6.60836L2.07716 13.8584C1.99276 13.9425 1.9258 14.0425 1.88012 14.1526C1.83443 14.2628 1.81091 14.3808 1.81091 14.5C1.81091 14.6192 1.83443 14.7372 1.88012 14.8473C1.9258 14.9574 1.99276 15.0574 2.07716 15.1416L9.32716 22.3916C9.41142 22.4759 9.51145 22.5427 9.62154 22.5883C9.73163 22.6339 9.84962 22.6574 9.96878 22.6574C10.0879 22.6574 10.2059 22.6339 10.316 22.5883C10.4261 22.5427 10.5261 22.4759 10.6104 22.3916C10.6947 22.3074 10.7615 22.2073 10.8071 22.0972C10.8527 21.9871 10.8762 21.8691 10.8762 21.75C10.8762 21.6308 10.8527 21.5128 10.8071 21.4027C10.7615 21.2926 10.6947 21.1926 10.6104 21.1084L4.90647 15.4062H26.2813C26.5216 15.4062 26.7521 15.3108 26.9221 15.1408C27.0921 14.9708 27.1875 14.7403 27.1875 14.5Z" fill="black"/>
</svg>
