<svg width="40" height="40" viewBox="0 0 40 40" fill="none" xmlns="http://www.w3.org/2000/svg">
<path d="M5.13293 2.7424C5.13293 2.01507 5.40333 1.31753 5.88463 0.803229C6.36593 0.28893 7.01871 0 7.69938 0H19.4691C20.1497 0.000155322 20.8024 0.289187 21.2835 0.803522L39.2486 20.0003C39.7298 20.5146 40.0001 21.212 40.0001 21.9392C40.0001 22.6663 39.7298 23.3638 39.2486 23.878L27.4789 36.4547C26.9977 36.9688 26.345 37.2576 25.6645 37.2576C24.9839 37.2576 24.3313 36.9688 23.85 36.4547L5.8849 17.2579C5.40357 16.7437 5.13308 16.0463 5.13293 15.319V2.7424ZM14.1155 13.712C15.1365 13.712 16.1156 13.2786 16.8376 12.5071C17.5596 11.7357 17.9651 10.6894 17.9651 9.59838C17.9651 8.50739 17.5596 7.46108 16.8376 6.68964C16.1156 5.91819 15.1365 5.48479 14.1155 5.48479C13.0945 5.48479 12.1153 5.91819 11.3934 6.68964C10.6714 7.46108 10.2658 8.50739 10.2658 9.59838C10.2658 10.6894 10.6714 11.7357 11.3934 12.5071C12.1153 13.2786 13.0945 13.712 14.1155 13.712Z" fill="black"/>
<path d="M3.31841 18.6291C2.83707 18.1149 2.56659 17.4175 2.56644 16.6902V2.7424C1.88578 2.7424 1.23299 3.03133 0.751693 3.54563C0.270392 4.05993 0 4.75747 0 5.4848L0 18.0614C0.000145357 18.7887 0.270633 19.4861 0.751967 20.0003L18.7171 39.1971C19.1983 39.7112 19.851 40 20.5315 40C21.2121 40 21.8647 39.7112 22.346 39.1971L22.4564 39.0791L3.31841 18.6291Z" fill="black"/>
</svg>
