<svg width="40" height="40" viewBox="0 0 40 40" fill="none" xmlns="http://www.w3.org/2000/svg">
<path d="M21.8852 0.8491C21.3851 0.305422 20.707 0 20 0C19.293 0 18.6149 0.305422 18.1148 0.8491L0.390985 20.1229C0.267027 20.2578 0.168699 20.4178 0.101614 20.594C0.0345284 20.7701 0 20.9589 0 21.1496C0 21.3402 0.0345284 21.529 0.101614 21.7052C0.168699 21.8813 0.267027 22.0414 0.390985 22.1762C0.641328 22.4485 0.980866 22.6014 1.33491 22.6014C1.51021 22.6014 1.68379 22.5639 1.84575 22.4909C2.00771 22.418 2.15487 22.311 2.27883 22.1762L20 2.89945L37.7212 22.1762C37.9715 22.4485 38.3111 22.6014 38.6651 22.6014C39.0191 22.6014 39.3587 22.4485 39.609 22.1762C39.8594 21.9039 40 21.5346 40 21.1496C40 20.7645 39.8594 20.3952 39.609 20.1229L33.3322 13.2991V3.74917C33.3322 3.36459 33.1917 2.99577 32.9417 2.72384C32.6917 2.45191 32.3526 2.29913 31.999 2.29913H29.3325C28.979 2.29913 28.6398 2.45191 28.3898 2.72384C28.1398 2.99577 27.9993 3.36459 27.9993 3.74917V7.49895L21.8852 0.8491Z" fill="black"/>
<path d="M20 6.04892L35.9986 23.4493V35.6499C35.9986 36.8036 35.5773 37.9101 34.8272 38.7259C34.0771 39.5417 33.0598 40 31.999 40H8.00101C6.94023 40 5.9229 39.5417 5.17282 38.7259C4.42273 37.9101 4.00134 36.8036 4.00134 35.6499V23.4493L20 6.04892Z" fill="black"/>
</svg>
