<svg width="150" height="150" viewBox="0 0 150 150" fill="none" xmlns="http://www.w3.org/2000/svg">
<circle cx="75" cy="75" r="75" fill="#F6F6F6"/>
<path d="M65.125 37.5C64.2962 37.5 63.5013 37.8292 62.9153 38.4153C62.3292 39.0013 62 39.7962 62 40.625C62 41.4538 62.3292 42.2487 62.9153 42.8347C63.5013 43.4208 64.2962 43.75 65.125 43.75H83.875C84.7038 43.75 85.4987 43.4208 86.0847 42.8347C86.6708 42.2487 87 41.4538 87 40.625C87 39.7962 86.6708 39.0013 86.0847 38.4153C85.4987 37.8292 84.7038 37.5 83.875 37.5H65.125ZM93.25 75C93.25 79.9728 91.2746 84.7419 87.7583 88.2583C84.2419 91.7746 79.4728 93.75 74.5 93.75C69.5272 93.75 64.7581 91.7746 61.2417 88.2583C57.7254 84.7419 55.75 79.9728 55.75 75C55.75 70.0272 57.7254 65.2581 61.2417 61.7417C64.7581 58.2254 69.5272 56.25 74.5 56.25C79.4728 56.25 84.2419 58.2254 87.7583 61.7417C91.2746 65.2581 93.25 70.0272 93.25 75Z" fill="#4A246C"/>
<path d="M52.625 25C48.481 25 44.5067 26.6462 41.5765 29.5765C38.6462 32.5067 37 36.481 37 40.625V112.5C37 115.815 38.317 118.995 40.6612 121.339C43.0054 123.683 46.1848 125 49.5 125H99.5C102.815 125 105.995 123.683 108.339 121.339C110.683 118.995 112 115.815 112 112.5V40.625C112 36.481 110.354 32.5067 107.424 29.5765C104.493 26.6462 100.519 25 96.375 25H52.625ZM43.25 40.625C43.25 38.1386 44.2377 35.754 45.9959 33.9959C47.754 32.2377 50.1386 31.25 52.625 31.25H96.375C98.8614 31.25 101.246 32.2377 103.004 33.9959C104.762 35.754 105.75 38.1386 105.75 40.625V108.094C104.251 106.894 102.624 105.863 100.9 105.019C95.7 102.419 87.3938 100 74.5 100C61.6062 100 53.3 102.419 48.1 105.019C46.3757 105.863 44.7493 106.894 43.25 108.094V40.625Z" fill="#4A246C"/>
</svg>
