<svg width="50" height="50" viewBox="0 0 50 50" fill="none" xmlns="http://www.w3.org/2000/svg">
<path fill-rule="evenodd" clip-rule="evenodd" d="M3.125 25C3.125 24.5856 3.28962 24.1882 3.58265 23.8952C3.87567 23.6021 4.2731 23.4375 4.6875 23.4375H41.5406L31.7062 13.6063C31.4129 13.3129 31.248 12.9149 31.248 12.5C31.248 12.0851 31.4129 11.6872 31.7062 11.3938C31.9996 11.1004 32.3976 10.9355 32.8125 10.9355C33.2274 10.9355 33.6254 11.1004 33.9188 11.3938L46.4188 23.8938C46.5643 24.0389 46.6797 24.2113 46.7585 24.4012C46.8372 24.591 46.8778 24.7945 46.8778 25C46.8778 25.2055 46.8372 25.409 46.7585 25.5989C46.6797 25.7887 46.5643 25.9611 46.4188 26.1063L33.9188 38.6063C33.6254 38.8997 33.2274 39.0645 32.8125 39.0645C32.3976 39.0645 31.9996 38.8997 31.7062 38.6063C31.4129 38.3129 31.248 37.9149 31.248 37.5C31.248 37.0851 31.4129 36.6871 31.7062 36.3938L41.5406 26.5625H4.6875C4.2731 26.5625 3.87567 26.3979 3.58265 26.1049C3.28962 25.8118 3.125 25.4144 3.125 25Z" fill="white"/>
</svg>
